<svg width="46" height="46" viewBox="0 0 46 46" fill="none" xmlns="http://www.w3.org/2000/svg">
<path fill-rule="evenodd" clip-rule="evenodd" d="M23.4727 42.167C20.8757 42.167 18.3437 42.1383 15.8387 42.0865C12.634 42.0233 10.4164 39.9456 10.0542 36.6643C9.45041 31.221 8.41733 18.3908 8.40775 18.2624C8.34258 17.4708 8.93291 16.777 9.7245 16.7137C10.5046 16.6926 11.2099 17.2408 11.2732 18.0305C11.2827 18.1608 12.3139 30.9469 12.9119 36.348C13.117 38.213 14.1232 39.1751 15.8981 39.2115C20.6897 39.3131 25.5792 39.3189 30.85 39.223C32.736 39.1866 33.7557 38.2436 33.9665 36.3346C34.5607 30.9795 35.5957 18.1608 35.6072 18.0305C35.6704 17.2408 36.37 16.6888 37.1539 16.7137C37.9455 16.7789 38.5358 17.4708 38.4726 18.2624C38.4611 18.3927 37.4222 31.2555 36.8242 36.6509C36.4524 39.9993 34.2406 42.0367 30.9018 42.098C28.3468 42.1421 25.882 42.167 23.4727 42.167" fill="#4094F7"/>
<path fill-rule="evenodd" clip-rule="evenodd" d="M39.6903 13.3965H7.1875C6.394 13.3965 5.75 12.7525 5.75 11.959C5.75 11.1655 6.394 10.5215 7.1875 10.5215H39.6903C40.4838 10.5215 41.1278 11.1655 41.1278 11.959C41.1278 12.7525 40.4838 13.3965 39.6903 13.3965" fill="#4094F7"/>
<path fill-rule="evenodd" clip-rule="evenodd" d="M33.4276 13.3962C31.2464 13.3962 29.3528 11.8418 28.9234 9.70282L28.4577 7.37215C28.3599 7.01757 27.9555 6.70898 27.4955 6.70898H19.3823C18.9223 6.70898 18.5179 7.01757 18.4009 7.46032L17.9544 9.70282C17.5269 11.8418 15.6314 13.3962 13.4502 13.3962C12.6567 13.3962 12.0127 12.7522 12.0127 11.9587C12.0127 11.1652 12.6567 10.5212 13.4502 10.5212C14.2667 10.5212 14.9759 9.93857 15.1369 9.1374L15.6026 6.80673C16.076 5.0204 17.6228 3.83398 19.3823 3.83398H27.4955C29.255 3.83398 30.8018 5.0204 31.256 6.72048L31.7429 9.1374C31.9019 9.93857 32.6111 10.5212 33.4276 10.5212C34.2211 10.5212 34.8651 11.1652 34.8651 11.9587C34.8651 12.7522 34.2211 13.3962 33.4276 13.3962" fill="#4094F7"/>
</svg>
