<svg width="20" height="17" viewBox="0 0 20 17" fill="none" xmlns="http://www.w3.org/2000/svg">
<path d="M13.3333 11.9997L9.99997 8.66641M9.99997 8.66641L6.66663 11.9997M9.99997 8.66641V16.1664M16.9916 13.9914C17.8044 13.5483 18.4465 12.8471 18.8165 11.9986C19.1866 11.15 19.2635 10.2024 19.0351 9.30532C18.8068 8.4082 18.2862 7.61267 17.5555 7.04428C16.8248 6.47589 15.9257 6.16702 15 6.16641H13.95C13.6977 5.19078 13.2276 4.28502 12.5749 3.51724C11.9222 2.74945 11.104 2.13962 10.1817 1.73358C9.25943 1.32755 8.25709 1.13587 7.25006 1.17298C6.24304 1.21008 5.25752 1.47499 4.36761 1.9478C3.47771 2.4206 2.70656 3.08899 2.11215 3.90273C1.51774 4.71646 1.11554 5.65436 0.935783 6.6459C0.756025 7.63745 0.803388 8.65685 1.07431 9.62746C1.34523 10.5981 1.83267 11.4946 2.49997 12.2497" stroke="#344054" stroke-width="1.67" stroke-linecap="round" stroke-linejoin="round"/>
</svg>
