<svg width="20" height="20" viewBox="0 0 20 20" fill="none" xmlns="http://www.w3.org/2000/svg">
<path fill-rule="evenodd" clip-rule="evenodd" d="M7.6025 13.1365C7.4105 13.1365 7.2185 13.0635 7.0725 12.9165C6.7795 12.6235 6.7795 12.1495 7.0725 11.8565L11.8645 7.06448C12.1575 6.77148 12.6315 6.77148 12.9245 7.06448C13.2175 7.35748 13.2175 7.83148 12.9245 8.12448L8.1325 12.9165C7.9865 13.0635 7.7945 13.1365 7.6025 13.1365Z" fill="black"/>
<path fill-rule="evenodd" clip-rule="evenodd" d="M12.3965 13.1395C12.2045 13.1395 12.0125 13.0665 11.8665 12.9195L7.0705 8.12252C6.7775 7.82952 6.7775 7.35552 7.0705 7.06252C7.3645 6.76952 7.8385 6.76952 8.1305 7.06252L12.9265 11.8595C13.2195 12.1525 13.2195 12.6265 12.9265 12.9195C12.7805 13.0665 12.5875 13.1395 12.3965 13.1395Z" fill="black"/>
<path fill-rule="evenodd" clip-rule="evenodd" d="M5.665 1.5C3.135 1.5 1.5 3.233 1.5 5.916V14.084C1.5 16.767 3.135 18.5 5.665 18.5H14.333C16.864 18.5 18.5 16.767 18.5 14.084V5.916C18.5 3.233 16.864 1.5 14.334 1.5H5.665ZM14.333 20H5.665C2.276 20 0 17.622 0 14.084V5.916C0 2.378 2.276 0 5.665 0H14.334C17.723 0 20 2.378 20 5.916V14.084C20 17.622 17.723 20 14.333 20Z" fill="black"/>
</svg>
